<svg width="136" height="136" viewBox="0 0 136 136" fill="none" xmlns="http://www.w3.org/2000/svg">
<rect x="0.666992" y="0.841309" width="134" height="134" rx="67" fill="#4CAF50" fill-opacity="0.06"/>
<rect x="0.666992" y="0.841309" width="134" height="134" rx="67" stroke="#4CAF50" stroke-dasharray="6 6"/>
<path d="M65.0503 36.3733C63.595 36.5878 62.1652 36.9497 60.783 37.4532C57.4724 38.764 54.6716 41.1056 52.7949 44.1316C50.9182 47.1575 50.0653 50.7071 50.3623 54.2554C50.6279 57.3936 51.7843 60.3906 53.6954 62.8939C55.6066 65.3972 58.1929 67.3026 61.1502 68.3858C62.3907 68.8004 63.6663 69.1013 64.9612 69.2849L65.5566 69.3605V73.501C65.5444 77.2108 65.5309 77.6158 65.3541 77.3876C63.2058 74.412 60.0317 72.3373 56.4441 71.5637C53.9628 70.9684 49.4673 71.3356 48.9097 72.1712C48.4687 73.3539 48.2455 74.6067 48.2509 75.8689C48.1457 78.5503 48.7784 81.2091 50.08 83.5557C51.3817 85.9023 53.3023 87.8468 55.6327 89.1772C56.195 89.4877 56.7742 89.7667 57.3675 90.0128C57.6278 90.0796 57.8729 90.1955 58.0897 90.3543C57.7475 90.613 57.3865 90.8458 57.0097 91.051C56.284 91.4901 55.5824 91.9678 54.9078 92.482L53.8818 93.3055L52.8315 92.9639C52.0406 92.6657 51.1887 92.5656 50.3502 92.6723C49.5444 92.6467 48.7421 92.7892 47.9944 93.0908C46.7619 93.5736 45.6838 94.3824 44.8753 95.4305C44.0668 96.4787 43.5584 97.7268 43.4044 99.0416C43.291 100.042 43.4301 100.586 43.9107 100.932C44.1807 101.122 46.1139 101.134 66.8161 101.134C87.5184 101.134 89.4556 101.122 89.7216 100.932C90.2157 100.577 90.3669 100.033 90.2413 99.0322C90.0795 97.7214 89.5679 96.4782 88.7604 95.4331C87.9528 94.388 86.8789 93.5795 85.6513 93.0922C84.9037 92.7906 84.1014 92.6481 83.2956 92.6737C82.4571 92.567 81.6052 92.6671 80.8143 92.9653L79.764 93.3068L78.738 92.4833C78.0634 91.9691 77.3617 91.4914 76.636 91.0523C75.6235 90.4569 75.3697 90.2423 75.7248 90.2423C76.2162 90.0702 76.6945 89.8627 77.1558 89.6213C79.2911 88.5596 81.1508 87.0165 82.5882 85.1137C83.5557 83.6866 84.3186 82.1312 84.8548 80.4926C85.4891 78.1899 85.5842 75.7721 85.1329 73.4267C84.8035 71.8944 84.6388 71.7676 82.5882 71.4382C79.6438 70.9627 76.6245 71.4048 73.9401 72.7044C71.7306 73.7393 69.8152 75.3108 68.3686 77.2756L68.0986 77.6428L68.0865 73.5023V69.3578L68.694 69.2822C71.1774 68.9864 73.5629 68.1378 75.6753 66.7989C77.7876 65.4601 79.5732 63.6649 80.9007 61.5453C82.1864 59.4143 82.9849 57.0253 83.2388 54.5494C83.4927 52.0736 83.1959 49.5722 82.3695 47.2245C81.8754 45.8448 81.5973 45.5411 80.8251 45.5411C80.6552 45.515 80.4813 45.538 80.3241 45.6077C80.1669 45.6773 80.0329 45.7905 79.9381 45.934C79.5196 46.4146 79.5196 46.8074 79.9381 47.8969C80.5866 49.6338 80.8847 51.4819 80.8152 53.3346C80.7456 55.1873 80.3098 57.0079 79.5328 58.6913C78.7559 60.3746 77.6533 61.8875 76.2886 63.1425C74.9239 64.3974 73.3241 65.3696 71.5816 66.0031C68.2224 67.2136 64.5277 67.0963 61.252 65.675C57.9763 64.2537 55.3667 61.6356 53.956 58.3553C52.9791 56.0637 52.6284 53.5537 52.9398 51.0821C53.2513 48.6104 54.2137 46.2659 55.7286 44.2883C56.2019 43.7137 56.7095 43.1682 57.2487 42.6548C59.1112 40.8867 61.4279 39.6703 63.9409 39.1412C66.4539 38.612 69.0644 38.7909 71.4817 39.6578C72.9249 40.1641 73.0261 40.1776 73.5202 39.9278C73.664 39.8471 73.7901 39.7384 73.8912 39.6081C73.9922 39.4779 74.0662 39.3287 74.1087 39.1695C74.1513 39.0102 74.1615 38.844 74.1388 38.6807C74.1161 38.5174 74.0609 38.3603 73.9765 38.2187C72.989 37.3969 71.7833 36.8808 70.507 36.7337C68.7088 36.3981 66.8771 36.2771 65.0503 36.3733ZM55.7434 74.018C58.4187 74.5428 60.8388 75.9544 62.6126 78.0246C64.3864 80.0949 65.4103 82.7028 65.5188 85.4269L65.5822 86.7566L62.758 83.9378C61.7841 82.8641 60.7071 81.8888 59.5423 81.0258C59.3779 80.9667 59.2025 80.9444 59.0285 80.9604C58.8545 80.9765 58.6861 81.0305 58.5352 81.1187C58.3844 81.2068 58.2547 81.327 58.1553 81.4708C58.0559 81.6145 57.9893 81.7783 57.9601 81.9506C57.8845 82.7107 57.9601 82.8119 60.8464 85.7306L63.7206 88.6425L62.3908 88.5535C61.5819 88.503 60.7778 88.3929 59.9851 88.224C58.4137 87.7849 56.9279 87.0829 55.5909 86.1477C53.8189 84.7645 52.4361 82.9454 51.5773 80.8679C50.992 79.4496 50.7323 77.9179 50.8173 76.3859C50.8051 74.1827 50.8807 73.9559 51.603 73.879C52.983 73.737 54.376 73.7838 55.7434 74.018ZM82.599 74.0936C82.991 75.778 82.9869 77.5303 82.5868 79.2128C81.8893 81.9618 80.2938 84.3992 78.0535 86.1383C76.7165 87.0735 75.2307 87.7755 73.6593 88.2146C72.8666 88.3834 72.0625 88.4935 71.2536 88.544L69.9238 88.6331L72.8101 85.7212C75.6843 82.8092 75.7599 82.708 75.6843 81.9412C75.6551 81.7689 75.5885 81.6051 75.4891 81.4613C75.3897 81.3176 75.2601 81.1974 75.1092 81.1092C74.9583 81.021 74.7899 80.967 74.6159 80.951C74.4419 80.9349 74.2665 80.9573 74.1021 81.0164C72.9374 81.8793 71.8603 82.8547 70.8864 83.9284L68.0622 86.7525L68.1256 85.4228C68.2365 82.7093 69.2533 80.1112 71.0137 78.0432C72.7741 75.9752 75.1765 74.5566 77.8375 74.0139C79.278 73.7007 82.3465 73.7399 82.599 74.0936ZM70.3045 91.2386C73.2255 91.8758 75.9266 93.2729 78.1345 95.2886C79.3117 96.3686 79.4764 96.3902 80.7684 95.7071C81.4422 95.2928 82.2398 95.1271 83.0229 95.2387C83.731 95.1477 84.4501 95.2714 85.087 95.5937C86.2098 96.1621 87.0808 97.1279 87.5305 98.3031L87.6061 98.5947H46.0437L46.1193 98.3031C46.569 97.1279 47.4401 96.1621 48.5628 95.5937C49.1998 95.2714 49.9189 95.1477 50.6269 95.2387C51.4117 95.1242 52.2116 95.2947 52.8814 95.7192C54.1734 96.3942 54.3381 96.3646 55.5153 95.3021C57.965 93.0641 61.0147 91.5899 64.2903 91.0604C66.2928 90.8229 68.3195 90.8829 70.3045 91.2386Z" fill="#4CAF50"/>
<path d="M77.1048 40.9195C76.8299 41.0506 76.6118 41.2768 76.4907 41.5562C76.3696 41.8356 76.3537 42.1494 76.446 42.4397C76.5442 42.7133 76.7354 42.9436 76.9862 43.0905C77.2371 43.2374 77.5316 43.2915 77.8182 43.2432C78.1049 43.1949 78.3654 43.0475 78.5543 42.8266C78.7432 42.6056 78.8485 42.3253 78.8517 42.0347C78.8538 41.7722 78.773 41.5158 78.6207 41.302C78.4685 41.0881 78.2526 40.9278 78.0039 40.8439C77.6232 40.7035 77.611 40.7035 77.1048 40.9195Z" fill="#4CAF50"/>
<path d="M65.9865 41.7936C65.6827 42.0474 65.6314 42.1986 65.5815 42.933C65.5437 43.4392 65.4681 43.7687 65.379 43.7687C64.5565 44.0321 63.7976 44.4633 63.1501 45.0349C62.779 45.445 62.4677 45.9054 62.2254 46.4025C61.8975 47.011 61.7566 47.7028 61.8204 48.391C61.7694 49.0104 61.8738 49.6326 62.1241 50.2014C62.7041 51.2299 63.589 52.053 64.6567 52.5571L65.5558 53.0256V59.3814L65.0874 59.3058C64.6244 59.1825 64.1779 59.004 63.7576 58.7739C63.3715 58.5585 62.9522 58.4089 62.517 58.3311C62.3163 58.3281 62.118 58.3759 61.9408 58.4701C61.7635 58.5643 61.6129 58.7017 61.503 58.8697C61.393 59.0377 61.3274 59.2307 61.3121 59.4308C61.2968 59.631 61.3323 59.8318 61.4154 60.0145C62.2855 61.0349 63.5137 61.6828 64.8471 61.8249L65.5558 61.914V62.6484C65.5198 62.8559 65.5344 63.0691 65.5983 63.2698C65.6622 63.4705 65.7736 63.6528 65.923 63.8013C66.0206 63.9463 66.1559 64.0618 66.3144 64.1353C66.4729 64.2088 66.6485 64.2376 66.8221 64.2184C66.9958 64.2376 67.1714 64.2088 67.3299 64.1353C67.4884 64.0618 67.6237 63.9463 67.7212 63.8013C68.0506 63.4341 68.0884 63.295 68.0884 62.5863V61.7763L68.569 61.6116C69.4319 61.3148 70.2008 60.795 70.7979 60.105C71.7509 59.1858 72.3089 57.9318 72.3538 56.6085C72.3986 55.2852 71.9268 53.9964 71.0382 53.0148C70.3199 52.2687 69.428 51.7121 68.4421 51.3948L68.0871 51.2422V46.4187L68.3787 46.5078C68.6635 46.6159 68.939 46.7472 69.2022 46.9006C69.4443 47.085 69.7458 47.1739 70.0492 47.1505C70.3526 47.1271 70.6368 46.993 70.8478 46.7737C71.7591 45.799 71.0125 44.7352 68.9106 44.0008L68.0871 43.7092V43.1017C68.1121 42.8224 68.0686 42.5411 67.9604 42.2824C67.8522 42.0236 67.6825 41.7951 67.4661 41.6167C67.2271 41.5072 66.9625 41.4657 66.7014 41.4969C66.4403 41.5281 66.1929 41.6308 65.9865 41.7936ZM65.5558 48.2641C65.5861 48.878 65.5522 49.4933 65.4546 50.1001C65.2401 49.9916 65.0439 49.8504 64.8727 49.6816C64.6049 49.4487 64.4169 49.1378 64.335 48.7925C64.2532 48.4471 64.2816 48.0848 64.4164 47.7565C64.569 47.2881 65.2399 46.4268 65.4424 46.4268C65.5556 47.0318 65.5937 47.6484 65.5558 48.2628V48.2641ZM68.7337 54.3162C69.0422 54.5445 69.2974 54.8371 69.4818 55.1736C69.6662 55.5102 69.7754 55.8827 69.8019 56.2655C69.8283 56.6484 69.7714 57.0324 69.635 57.3911C69.4986 57.7498 69.286 58.0747 69.0118 58.3432C68.0668 59.3814 68.0871 59.4233 68.0871 56.5586C68.0492 55.7127 68.0871 54.8651 68.2005 54.0259C68.3913 54.0964 68.571 54.1942 68.7337 54.3162Z" fill="#4CAF50"/>
</svg>
