<svg width="136" height="136" viewBox="0 0 136 136" fill="none" xmlns="http://www.w3.org/2000/svg">
<rect x="1.33301" y="0.841309" width="134" height="134" rx="67" fill="#FF6B35" fill-opacity="0.06"/>
<rect x="1.33301" y="0.841309" width="134" height="134" rx="67" stroke="#FF6B35" stroke-dasharray="6 6"/>
<path d="M67.31 36.5254C65.9957 36.8642 64.8272 37.6213 63.9808 38.6822C63.1344 39.7432 62.6558 41.0507 62.6174 42.4074C62.5831 43.0176 62.6869 43.6276 62.9212 44.1921C63.0926 44.6281 63.2384 45.025 63.2384 45.0642C63.2384 45.1033 55.0034 52.3353 50.4553 56.2611C50.2433 56.4325 50.165 56.4069 49.6223 55.9047C48.9439 55.3102 48.1448 54.8697 47.28 54.6134C46.4152 54.3571 45.5052 54.291 44.6125 54.4197C43.0663 54.6739 41.6682 55.4893 40.6854 56.7096C39.7026 57.93 39.2041 59.4698 39.2854 61.0346C39.5288 62.1269 39.9679 63.166 40.5814 64.1018C40.7272 64.3138 40.8325 64.5379 40.8055 64.6041C40.7785 64.6702 39.55 65.7813 38.0555 67.0759C36.5611 68.3706 35.2799 69.5221 35.1935 69.6396C35.0779 69.8149 35.0219 70.0227 35.0338 70.2324C35.0457 70.442 35.1249 70.6422 35.2597 70.8033C35.4311 71.0017 47.8052 81.7882 67.9296 99.2774C68.1865 99.5404 68.5194 99.7161 68.8814 99.7797C69.1716 99.7797 71.009 98.2326 78.4124 91.7688C83.4493 87.3664 87.6532 83.6688 87.745 83.5459C87.8814 83.3388 87.9378 83.0892 87.9038 82.8435C87.8698 82.5979 87.7476 82.373 87.56 82.2108C86.9255 81.7085 86.7406 81.8058 84.6778 83.6256L83.29 84.8405L77.6713 78.4159L72.0404 71.9778V65.4343L78.9673 61.5747C85.2461 58.0984 85.9333 57.7407 86.1722 57.9C86.3437 58.0053 86.4233 58.1511 86.3707 58.2699C85.8176 59.6386 85.8128 61.1677 86.3572 62.5399C87.5008 64.6782 89.0236 66.5907 90.8513 68.1843C92.1865 69.3736 92.3053 69.348 94.1561 67.5363L95.6411 66.0958L96.038 66.4266C96.2621 66.6115 97.28 67.5066 98.3249 68.4097L100.201 70.0486L94.9931 74.6089C93.1346 76.1277 91.3688 77.7564 89.7052 79.4864C89.6715 79.6574 89.6826 79.8341 89.7374 79.9995C89.7922 80.1649 89.8888 80.3134 90.0178 80.4304C90.1469 80.5475 90.3039 80.6292 90.4739 80.6677C90.6438 80.7062 90.8208 80.7002 90.9877 80.6501C91.2914 80.5043 102.251 70.9733 102.554 70.5899C102.665 70.412 102.716 70.204 102.702 69.9953C102.688 69.7865 102.608 69.5875 102.475 69.4262C102.356 69.2804 101.125 68.1843 99.7384 66.9963C98.3519 65.8083 97.1477 64.762 97.0384 64.6702C96.8926 64.5352 96.9034 64.4448 97.1437 64.1154C97.7551 63.174 98.194 62.1313 98.4397 61.036C98.5006 60.1444 98.3652 59.2502 98.0431 58.4166C97.721 57.5829 97.2199 56.8301 96.5753 56.2111C95.6523 55.2467 94.4335 54.6186 93.1126 54.4264C92.2234 54.2982 91.3171 54.3629 90.4552 54.6161C89.5933 54.8693 88.7961 55.3051 88.1176 55.8939L87.5357 56.4339L84.9707 54.2131C83.5694 52.9833 80.621 50.4196 78.4408 48.5161L74.4488 45.0655L74.7931 44.2326C75.2089 43.1049 75.2275 41.869 74.8457 40.7293C74.3553 39.2047 73.3047 37.9229 71.9061 37.1427C70.5075 36.3624 68.8649 36.1418 67.31 36.5254ZM70.6013 38.707C71.1046 38.9131 71.5606 39.2198 71.9411 39.6084C72.3217 39.997 72.6188 40.4593 72.8144 40.9668C73.0099 41.4743 73.0998 42.0164 73.0783 42.5599C73.0569 43.1034 72.9247 43.6367 72.6898 44.1273C71.895 45.429 70.9428 46.6278 69.8548 47.6967L68.8504 48.6754L67.846 47.6967C66.6819 46.5689 65.6887 45.2772 64.8976 43.8626C64.6921 43.313 64.6071 42.7256 64.6485 42.1402C64.6899 41.5548 64.8566 40.9852 65.1374 40.4699C65.4181 39.9546 65.8064 39.5057 66.2758 39.1535C66.7452 38.8014 67.2848 38.5543 67.8581 38.4289C68.7812 38.2827 69.7264 38.3785 70.6013 38.707ZM65.6833 48.3433C66.0802 48.7928 66.8726 49.5732 67.4383 50.0875C68.7882 51.2904 68.9233 51.2904 70.2733 50.0875C71.3429 49.0964 72.3328 48.0225 73.2338 46.8759C73.3 46.7706 84.0473 55.9303 84.2323 56.2611C84.2714 56.3137 81.3379 57.9931 77.7158 60.0019L71.1332 63.6469L64.9232 57.8176C61.4996 54.606 58.7132 51.9222 58.724 51.8425C58.7348 51.7629 60.02 50.587 61.5793 49.2249L64.4142 46.7665L64.6924 47.1364C64.8247 47.3524 65.2864 47.8802 65.6833 48.3433ZM63.5152 59.2095C66.9914 62.4873 69.8871 65.2507 69.9533 65.3425C70.033 66.3628 70.0565 67.3868 70.0235 68.4097L69.9844 71.292L64.9745 71.3311L59.9512 71.3581L54.2933 75.6147L48.6233 79.8577L48.2669 79.5269C48.0685 79.342 45.5669 77.1604 42.7319 74.6886L37.5371 70.1809L39.6256 68.3706C40.7623 67.3662 41.8072 66.4671 41.9395 66.3618C42.1514 66.1768 42.2837 66.2821 43.6054 67.5646C45.4292 69.3493 45.548 69.3628 46.8832 68.1856C48.2026 66.9808 49.3942 65.6431 50.4391 64.1937C51.0253 63.4865 51.4371 62.6515 51.6414 61.756C51.8456 60.8604 51.8366 59.9294 51.6149 59.038L51.3908 58.0863L51.9592 57.5976C52.2764 57.3276 53.5184 56.2475 54.7226 55.1918C55.4613 54.5054 56.2378 53.8609 57.0487 53.2614C57.1054 53.2479 60.0254 55.9317 63.5152 59.2095ZM47.11 56.6445C47.8717 56.9743 48.5277 57.5078 49.0057 58.1864C49.4837 58.865 49.7653 59.6623 49.8194 60.4906C49.8194 61.7056 48.4843 63.8089 46.4215 65.8447L45.5089 66.7438L44.4518 65.6463C43.3627 64.5379 42.4088 63.3044 41.6101 61.9715C41.4018 61.4922 41.2932 60.9755 41.2909 60.4528C41.2886 59.9302 41.3926 59.4126 41.5966 58.9314C42.0399 57.9096 42.8629 57.1001 43.8919 56.6736C44.9208 56.2472 46.0751 56.2373 47.1113 56.6458L47.11 56.6445ZM94.0643 56.8294C94.9661 57.2663 95.6864 58.0052 96.1001 58.9179C96.3095 59.3997 96.4175 59.9194 96.4175 60.4447C96.4175 60.97 96.3095 61.4897 96.1001 61.9715C95.3014 63.3044 94.3475 64.538 93.2584 65.6463L92.2013 66.7438L91.2887 65.8447C90.1544 64.73 89.1639 63.4778 88.3403 62.1173C87.9769 61.4145 87.8465 60.6142 87.9678 59.8323C88.0891 59.0504 88.456 58.3274 89.0153 57.7677C89.6275 57.0639 90.4601 56.5884 91.3772 56.4185C92.2943 56.2486 93.242 56.3944 94.0657 56.8321L94.0643 56.8294ZM76.139 79.7119C80.2241 84.3654 81.6916 86.1231 81.5984 86.2554C81.4526 86.4673 68.9611 97.3996 68.8558 97.3996C68.7896 97.3996 51.0101 81.9597 50.4418 81.4048C50.2042 81.1794 50.3621 81.0349 55.399 77.2671L60.5938 73.3669L65.578 73.3534L70.573 73.3399L76.139 79.7119Z" fill="#FF6B35"/>
<path d="M67.5991 39.8167C67.0389 40.0505 66.5643 40.4515 66.2404 40.9649C65.9164 41.4783 65.7587 42.0791 65.7888 42.6855C65.7986 43.2691 65.9749 43.8377 66.2969 44.3245C66.6189 44.8113 67.0733 45.1961 67.6065 45.4334C68.1397 45.6708 68.7296 45.751 69.3068 45.6646C69.884 45.5781 70.4246 45.3286 70.8648 44.9454C71.1757 44.6725 71.4294 44.3407 71.6114 43.9692C71.7934 43.5977 71.9 43.1938 71.9251 42.7809C71.9502 42.368 71.8933 41.9542 71.7576 41.5634C71.622 41.1726 71.4103 40.8125 71.1348 40.5039C70.5125 39.9174 69.7074 39.5627 68.8547 39.4995C68.4192 39.5202 67.9922 39.6281 67.5991 39.8167ZM69.5823 41.8134C69.6942 41.919 69.7831 42.0465 69.8435 42.188C69.9039 42.3295 69.9344 42.482 69.9331 42.6358C69.9319 42.7896 69.8988 42.9416 69.8362 43.0821C69.7735 43.2226 69.6824 43.3486 69.5688 43.4523C69.4171 43.5931 69.2273 43.686 69.0231 43.7197C68.819 43.7533 68.6094 43.7261 68.4205 43.6415C68.2317 43.5568 68.0719 43.4185 67.9612 43.2437C67.8504 43.0689 67.7935 42.8654 67.7976 42.6585C67.7885 42.5116 67.8087 42.3643 67.8572 42.2253C67.9056 42.0863 67.9812 41.9584 68.0796 41.849C68.178 41.7395 68.2972 41.6507 68.4303 41.5878C68.5633 41.5249 68.7076 41.4892 68.8547 41.4827C68.9919 41.4865 69.1269 41.5178 69.2519 41.5746C69.3768 41.6314 69.4892 41.7126 69.5823 41.8134Z" fill="#FF6B35"/>
<path d="M44.8645 57.5961C44.1761 57.7498 43.563 58.1389 43.1309 58.6964C42.6989 59.2539 42.475 59.9448 42.4979 60.6498C42.4772 61.0556 42.5421 61.4613 42.6885 61.8404C42.8348 62.2196 43.0592 62.5637 43.3472 62.8504C43.6352 63.1371 43.9803 63.36 44.3601 63.5047C44.7399 63.6493 45.1458 63.7124 45.5516 63.6899C45.9945 63.7046 46.4348 63.6169 46.8383 63.4335C47.2417 63.2502 47.5974 62.9762 47.8777 62.6329C48.2481 62.2079 48.494 61.6889 48.5884 61.1331C48.6827 60.5772 48.6219 60.0062 48.4125 59.4827C48.2031 58.9593 47.8533 58.5037 47.4017 58.1663C46.95 57.8289 46.414 57.6227 45.8527 57.5704C45.5237 57.5313 45.1909 57.54 44.8645 57.5961ZM46.3576 59.9356C46.4984 60.0906 46.5901 60.2838 46.6211 60.4909C46.6522 60.698 46.6212 60.9097 46.5321 61.0992C46.443 61.2886 46.2998 61.4475 46.1204 61.5556C45.9411 61.6638 45.7338 61.7164 45.5246 61.7068C45.2771 61.7065 45.0371 61.6219 44.8441 61.4671C44.6511 61.3122 44.5166 61.0962 44.4627 60.8546C44.4088 60.6131 44.4387 60.3604 44.5476 60.1381C44.6564 59.9159 44.8377 59.7374 45.0616 59.6319C45.2801 59.5257 45.5288 59.4986 45.7651 59.5552C46.0014 59.6118 46.2108 59.7486 46.3576 59.9423V59.9356Z" fill="#FF6B35"/>
<path d="M91.528 57.5962C91.0036 57.7082 90.5175 57.955 90.1175 58.3121C89.7175 58.6691 89.4173 59.1242 89.2466 59.6325C89.0759 60.1408 89.0405 60.6848 89.1439 61.2109C89.2473 61.737 89.486 62.2272 89.8364 62.633C90.1167 62.9763 90.4723 63.2503 90.8758 63.4336C91.2792 63.617 91.7195 63.7047 92.1625 63.6901C92.5682 63.7126 92.9742 63.6494 93.354 63.5048C93.7337 63.3601 94.0788 63.1372 94.3668 62.8505C94.6548 62.5638 94.8793 62.2197 95.0256 61.8405C95.1719 61.4614 95.2368 61.0557 95.2162 60.6499C95.2419 60.251 95.1807 59.8513 95.0369 59.4784C94.8931 59.1055 94.67 58.7682 94.3832 58.4899C94.018 58.1168 93.5662 57.8399 93.068 57.6839C92.5697 57.528 92.0407 57.4978 91.528 57.5962ZM93.021 59.9357C93.1728 60.1022 93.2736 60.3089 93.3113 60.5311C93.2932 60.7452 93.231 60.9533 93.1285 61.1422C93.0261 61.3311 92.8856 61.4967 92.716 61.6286C92.4959 61.7387 92.2457 61.7733 92.0041 61.727C91.7624 61.6808 91.5427 61.5563 91.3789 61.3728C91.215 61.1893 91.1161 60.9569 91.0974 60.7116C91.0788 60.4662 91.1413 60.2216 91.2755 60.0154C91.3668 59.8699 91.4921 59.7487 91.6405 59.6622C91.7889 59.5757 91.9562 59.5265 92.1278 59.5188C92.2994 59.5111 92.4703 59.5452 92.6259 59.618C92.7815 59.6909 92.9171 59.8003 93.021 59.9371V59.9357Z" fill="#FF6B35"/>
<path d="M67.0064 79.0096C65.9642 79.3277 65.0299 79.927 64.3064 80.7417C63.416 81.6591 62.8378 82.834 62.654 84.0992C62.5614 84.9382 62.644 85.7873 62.8966 86.5927C63.1492 87.3981 63.5663 88.1424 64.1214 88.7783C65.388 90.4472 66.843 91.9643 68.4576 93.2994C69.0786 93.5694 69.4755 93.2994 71.2602 91.462C75.0011 87.628 75.8502 85.2629 74.5515 82.3941C73.9684 81.264 73.1088 80.2998 72.0527 79.5915C70.5088 78.7532 68.7005 78.5447 67.0064 79.0096ZM70.6811 81.1251C71.6022 81.5469 72.334 82.2957 72.7345 83.2262C73.1351 84.1568 73.176 85.203 72.8492 86.162C72.1104 87.54 71.1653 88.797 70.0466 89.8893L68.8572 91.1191L67.6017 89.8232C66.3441 88.6263 65.3412 87.1877 64.6533 85.5936C64.5103 84.5752 64.7354 83.5391 65.2879 82.6718C65.8405 81.8044 66.6844 81.1626 67.6679 80.8619C68.6781 80.6851 69.7171 80.7764 70.6811 81.1265V81.1251Z" fill="#FF6B35"/>
<path d="M67.6666 82.1443C67.1186 82.3869 66.651 82.7806 66.3187 83.2794C65.9863 83.7781 65.803 84.3612 65.7901 84.9604C65.7688 85.3706 65.8332 85.7807 65.9793 86.1646C66.1254 86.5484 66.3499 86.8976 66.6385 87.1898C66.9272 87.482 67.2736 87.7108 67.6556 87.8615C68.0376 88.0123 68.4469 88.0817 68.8573 88.0654C69.2677 88.0817 69.677 88.0123 70.059 87.8615C70.4411 87.7108 70.7875 87.482 71.0761 87.1898C71.3647 86.8976 71.5893 86.5484 71.7354 86.1646C71.8815 85.7807 71.9459 85.3706 71.9245 84.9604C71.9142 84.3571 71.7288 83.7697 71.3908 83.2698C71.0529 82.7699 70.577 82.3789 70.021 82.1443C69.2585 81.8796 68.4291 81.8796 67.6666 82.1443ZM69.5701 84.1936C69.7584 84.3747 69.8814 84.6132 69.9197 84.8716C69.9581 85.1301 69.9097 85.3939 69.7821 85.6219C69.6418 85.8309 69.4338 85.9852 69.1931 86.059C68.9524 86.1328 68.6937 86.1214 68.4604 86.0269C67.9717 85.8285 67.7989 85.5382 67.7989 84.9159C67.8108 84.6442 67.9276 84.3877 68.1248 84.2004C68.3219 84.013 68.584 83.9095 68.856 83.9115C69.1163 83.9344 69.3644 84.0324 69.5701 84.1936Z" fill="#FF6B35"/>
</svg>
