<svg width="136" height="136" viewBox="0 0 136 136" fill="none" xmlns="http://www.w3.org/2000/svg">
<rect x="1" y="0.841309" width="134" height="134" rx="67" fill="#0B2848" fill-opacity="0.06"/>
<rect x="1" y="0.841309" width="134" height="134" rx="67" stroke="#0B2848" stroke-dasharray="6 6"/>
<path d="M65.4354 36.4238C65.016 36.4854 64.6316 36.6925 64.3495 37.0089C64.0674 37.3253 63.9056 37.7308 63.8923 38.1545L63.8248 38.7579L62.7448 39.0131C61.0332 39.423 59.4697 40.3018 58.2297 41.5508C56.9897 42.7999 56.1223 44.3698 55.7248 46.0844C55.4967 47.0294 55.4697 47.078 54.9864 47.2386C53.8591 47.6274 53.5635 48.2714 53.55 50.3247C53.466 51.0033 53.559 51.6921 53.82 52.3241L54.0751 52.8479L53.6593 53.3312C53.3547 53.7028 53.0976 54.111 52.8939 54.5462C52.582 55.1923 52.4611 55.9141 52.5456 56.6265C52.4468 57.4018 52.6022 58.1881 52.9884 58.8675C53.5588 60.0235 54.5327 60.9306 55.7262 61.4177L56.5713 61.7403L56.6523 63.0012C56.6541 63.7763 56.8188 64.5424 57.1355 65.2498C57.4522 65.9573 57.914 66.5903 58.491 67.1079C59.3348 67.8776 60.3675 68.41 61.4839 68.651L62.275 68.8116V71.8046L59.0944 73.133C54.9216 74.8502 54.4518 75.1053 53.5392 76.0044C52.5334 77.0582 51.8573 78.3828 51.5938 79.8155L51.2455 81.2249L49.8226 80.6214C49.0315 80.2988 48.1851 79.937 47.9434 79.8425C47.5276 79.6548 47.5141 79.6413 47.5141 78.7827C47.5141 77.9241 47.5276 77.8971 47.8233 77.8971C48.7483 77.6756 49.5937 77.2017 50.2654 76.5282C50.6063 76.1331 50.8948 75.6956 51.124 75.2268C51.4602 74.4884 51.4723 74.3952 51.5128 71.3753L51.5668 68.2622L52.0906 68.1812C52.4426 68.0907 52.7661 67.9129 53.0311 67.6641C53.2961 67.4154 53.4941 67.1039 53.6067 66.7583C53.6638 66.255 53.6909 65.7487 53.6877 65.2422C53.6877 63.9003 53.365 63.1349 52.6806 62.8001C52.5491 62.7555 52.4304 62.6798 52.3345 62.5794C52.2386 62.4791 52.1683 62.357 52.1298 62.2236C51.8619 60.9617 51.2499 59.7986 50.3616 58.8631C49.4733 57.9276 48.3434 57.2563 47.097 56.9235C46.453 56.7494 46.372 56.6954 46.287 56.3066C46.233 56.0402 46.1107 55.7925 45.932 55.5877C45.7533 55.383 45.5244 55.2283 45.2677 55.1388C44.2893 54.9226 43.2798 54.886 42.2883 55.0308C41.9779 55.1222 41.6958 55.2907 41.4682 55.5206C41.2406 55.7506 41.075 56.0344 40.9869 56.3457C40.9194 56.7507 40.8519 56.802 40.3834 56.8857C39.5978 57.013 38.8632 57.3571 38.2626 57.8793C38.169 58.0236 38.1152 58.1901 38.1068 58.3618C38.0985 58.5336 38.1358 58.7046 38.2149 58.8572C38.2941 59.0099 38.4123 59.1389 38.5575 59.231C38.7027 59.3232 38.8697 59.3752 39.0415 59.3819C39.3768 59.3479 39.7038 59.2566 40.0081 59.1119C40.251 58.9902 40.5081 58.8994 40.7736 58.8419C40.8937 58.8419 40.9342 59.3117 40.9342 60.7211V62.6003H37.2204L37.2339 62.1305C37.2454 61.9947 37.228 61.8579 37.1829 61.7293C37.1377 61.6007 37.0659 61.4831 36.972 61.3842C36.8781 61.2854 36.7644 61.2076 36.6383 61.1558C36.5122 61.1041 36.3765 61.0797 36.2403 61.0842C35.73 61.0842 35.3682 61.4595 35.2467 62.117C35.2158 62.2703 35.1468 62.4133 35.046 62.5329C34.9453 62.6526 34.8161 62.7449 34.6702 62.8014C33.9048 63.2172 33.7036 63.7545 33.7036 65.3907C33.7036 66.8933 33.8386 67.3361 34.4556 67.8207C34.7153 68.0056 35.0134 68.1293 35.3277 68.1825L35.838 68.2635L35.8785 71.4441C35.919 75.054 35.9865 75.3092 37.0867 76.5026C37.7662 77.1996 38.6333 77.6845 39.5829 77.8985C39.8785 77.8985 39.892 77.939 39.8529 78.7976L39.8124 79.6832L36.5386 81.0332C35.3498 81.4858 34.1968 82.0273 33.0894 82.6532C32.9274 82.88 32.9004 84.3434 32.9004 91.3215C32.9004 99.5876 32.9004 99.7347 33.1704 100.017C33.2675 100.113 33.3828 100.189 33.5097 100.24C33.6365 100.29 33.7722 100.315 33.9088 100.313C34.0454 100.315 34.1812 100.29 34.308 100.24C34.4348 100.189 34.5502 100.113 34.6473 100.017C34.8889 99.7469 34.9173 99.5471 34.9173 97.5342V95.3472H42.696V97.5612C42.696 99.6011 42.723 99.8022 42.966 100.044C43.0652 100.139 43.1828 100.212 43.3116 100.26C43.4404 100.307 43.5775 100.328 43.7146 100.32C43.8516 100.313 43.9857 100.277 44.1084 100.216C44.2311 100.154 44.3399 100.068 44.428 99.9629C44.6832 99.6402 44.7102 99.4229 44.7102 97.4802V95.3472H46.1952C47.5452 95.3472 47.6802 95.3742 47.6316 95.5754C47.5911 95.7104 47.3616 96.6554 47.1213 97.6557L46.665 99.5079L46.935 99.8697C47.1048 100.093 47.3557 100.241 47.6335 100.281C47.9114 100.321 48.1938 100.251 48.42 100.084C48.5806 99.9102 49.4797 96.596 51.2779 89.4032C52.7143 83.6738 53.9347 78.9771 53.9779 78.9771C54.3846 79.6571 54.722 80.3762 54.985 81.1236C55.039 81.3113 55.12 85.5786 55.1592 90.5979C55.2402 99.3473 55.2537 99.7631 55.4953 100.032C55.6953 100.209 55.9516 100.311 56.219 100.318C56.4864 100.326 56.7479 100.239 56.9574 100.072C57.145 99.8576 57.1855 99.3608 57.2125 96.5433L57.253 93.2696L61.708 93.2291L66.163 93.2021L66.2035 96.4758C66.244 99.4688 66.271 99.7766 66.4992 100.032C66.7044 100.219 66.9724 100.323 67.2505 100.323C67.5285 100.323 67.7965 100.219 68.0017 100.032C68.2299 99.7766 68.2569 99.4688 68.2974 96.4758L68.3379 93.2021L72.7929 93.2291L77.2479 93.2696L77.2884 96.5433C77.3154 99.3608 77.3559 99.8576 77.5435 100.072C77.753 100.239 78.0145 100.326 78.2819 100.318C78.5494 100.311 78.8056 100.209 79.0056 100.032C79.2472 99.7617 79.2607 99.3567 79.3282 90.5979C79.3957 82.3629 79.4227 81.3923 79.6374 80.7888C79.96 79.8627 80.4825 78.9096 80.5824 79.0581C80.6229 79.1256 81.8433 83.8628 83.2824 89.5787C84.0552 93.1497 85.0091 96.6791 86.1403 100.153C86.3746 100.283 86.6472 100.326 86.91 100.274C87.1728 100.223 87.4089 100.08 87.5767 99.8711L87.8467 99.5093L87.3904 97.6571C87.1353 96.6513 86.9071 95.7117 86.8801 95.5902C86.8396 95.3756 86.9746 95.3486 88.3165 95.3486H89.8015V97.4816C89.8015 99.4269 89.8285 99.6416 90.0837 99.9642C90.1718 100.069 90.2806 100.155 90.4033 100.217C90.5261 100.278 90.6601 100.314 90.7971 100.322C90.9342 100.329 91.0714 100.309 91.2001 100.261C91.3289 100.214 91.4465 100.14 91.5457 100.045C91.7874 99.8036 91.8157 99.6024 91.8157 97.5626V95.3486H99.5904V97.5356C99.5904 99.5484 99.6174 99.7496 99.8604 100.018C100.057 100.212 100.322 100.32 100.598 100.32C100.874 100.32 101.139 100.212 101.336 100.018C101.606 99.7361 101.606 99.5889 101.606 91.3094C101.606 83.4996 101.592 82.8827 101.378 82.6275C100.265 82.0057 99.1076 81.4673 97.915 81.017L94.6939 79.6886L94.6534 78.7895C94.6129 77.9444 94.6264 77.9039 94.9234 77.9039C95.873 77.6899 96.7401 77.205 97.4196 76.508C98.5198 75.3132 98.5873 75.0594 98.6278 71.4495L98.6683 68.2689L99.2083 68.1879C99.5949 68.1041 99.9517 67.9176 100.241 67.6479L100.738 67.1916L100.778 65.5946C100.819 63.7424 100.658 63.2456 99.8334 62.8028C99.6732 62.7452 99.5332 62.6422 99.4308 62.5062C99.3284 62.3702 99.268 62.2072 99.2569 62.0373C98.9276 60.8046 98.2805 59.6799 97.3802 58.7756C96.48 57.8714 95.3582 57.2192 94.1269 56.8844C93.6706 56.8169 93.564 56.7372 93.51 56.4416C93.4287 56.1574 93.2872 55.894 93.095 55.6694C92.9028 55.4449 92.6645 55.2644 92.3962 55.1402C91.3498 54.8985 90.2621 54.8985 89.2156 55.1402C88.959 55.2296 88.7301 55.3844 88.5514 55.5891C88.3727 55.7939 88.2503 56.0415 88.1964 56.3079C88.1154 56.6967 88.0357 56.7507 87.3864 56.9249C86.1469 57.2623 85.0231 57.9318 84.1362 58.8611C83.2493 59.7903 82.6329 60.9441 82.3536 62.198C82.258 62.4579 82.0641 62.6698 81.8136 62.7879C81.0886 63.1767 80.7943 63.9152 80.7943 65.2976C80.7906 65.8405 80.8358 66.3827 80.9293 66.9176C81.0394 67.2408 81.2346 67.5285 81.4942 67.7504C81.7538 67.9723 82.0684 68.1201 82.4049 68.1785L82.9152 68.2595L82.9692 71.3726C83.0097 74.3925 83.0232 74.4857 83.358 75.2241C83.5872 75.693 83.8758 76.1303 84.2166 76.5255C84.8883 77.199 85.7337 77.6729 86.6587 77.8944C86.9544 77.8944 86.9679 77.9484 86.9679 78.753C87.0023 79.077 86.9559 79.4044 86.8329 79.7061C86.7654 79.7466 85.9203 80.1111 84.9672 80.4972L83.2365 81.2222L82.8882 79.7993C82.7022 79.0618 82.4598 78.3397 82.1632 77.6393C81.3101 76.0937 79.9157 74.9181 78.2482 74.3385C77.3032 74.0037 76.5972 74.6207 76.8253 75.5535C76.8928 75.8235 77.1345 75.9963 77.8851 76.3325C79.1595 76.9224 79.2945 77.0844 78.9313 77.6069C77.8391 79.3205 77.2756 81.3179 77.3113 83.3498V84.8658H68.3203V78.7193L69.9309 76.2771C70.8165 74.9271 71.5684 73.7945 71.5954 73.7675C71.9388 73.8514 72.272 73.9728 72.589 74.1293C73.7433 74.6126 74.0119 74.6261 74.4277 74.1968C75.1527 73.4853 74.7234 72.7874 73.1803 72.1839L72.2137 71.8086V68.8022L73.0048 68.6415C74.1213 68.4006 75.1539 67.8682 75.9978 67.0985C76.5747 66.5808 77.0365 65.9478 77.3533 65.2404C77.67 64.533 77.8346 63.7669 77.8365 62.9918L77.9175 61.7309L78.7626 61.4082C79.9535 60.9248 80.9271 60.0233 81.5004 58.8729C81.8866 58.1935 82.042 57.4072 81.9432 56.6319C82.0277 55.9195 81.9068 55.1977 81.5949 54.5516C81.3912 54.1164 81.134 53.7082 80.8294 53.3366L80.4136 52.8533L80.6688 52.3295C80.9297 51.6975 81.0227 51.0087 80.9388 50.3301C80.9253 48.2768 80.6296 47.6301 79.5024 47.244C79.0191 47.0834 79.0056 47.0294 78.6924 45.9291C78.2872 44.2466 77.4228 42.7096 76.1954 41.4894C74.9681 40.2693 73.4261 39.4139 71.7412 39.0185L70.6612 38.7633L70.5937 38.1599C70.4196 36.764 69.8148 36.4049 67.5076 36.3617C66.8164 36.3207 66.1229 36.3416 65.4354 36.4238ZM68.589 42.677V47.0388H65.9119V38.3165H68.5957L68.589 42.677ZM63.8923 43.9514V47.0375H60.7455C59.6928 47.0792 58.6384 47.039 57.5919 46.9173C57.7967 46.0347 58.1143 45.1822 58.5369 44.3807L58.9527 43.6827L59.7438 44.2227C60.8238 44.9612 61.4083 44.9207 61.7431 44.1026C61.9713 43.5788 61.7296 43.1225 60.9642 42.627L60.3877 42.2382L61.0182 41.8629C61.8224 41.398 62.6969 41.0669 63.6075 40.8828L63.9031 40.8693L63.8923 43.9514ZM71.9842 41.1731C72.501 41.3644 73.0032 41.5932 73.4868 41.8575L74.1172 42.2328L73.5408 42.6216C72.7753 43.1184 72.5337 43.5747 72.7618 44.0972C73.098 44.9153 73.6879 44.9558 74.7612 44.2173L75.5523 43.6773L75.9141 44.2808C76.3222 45.0035 76.6249 45.7809 76.8132 46.5893L76.9077 47.0321H70.6086V43.946C70.6086 40.3955 70.4871 40.6344 71.9896 41.1744L71.9842 41.1731ZM78.9219 50.2572V51.4655H55.5804V49.0503H78.9354L78.9219 50.2572ZM75.8088 58.7379C75.7683 63.8504 75.7548 64.0245 75.4726 64.5429C75.0149 65.3175 74.3507 65.9495 73.5543 66.3681L72.9508 66.6908H61.5501L60.8751 66.329C60.0361 65.8896 59.3593 65.1939 58.9432 64.3431C58.6732 63.7667 58.6611 63.471 58.6611 58.6002V53.4702H75.8547L75.8088 58.7379ZM56.6523 56.6319C56.6523 59.772 56.6658 59.7369 55.9003 59.2617C55.4376 58.9642 55.0652 58.5455 54.8239 58.0511C54.5825 57.5568 54.4814 57.0057 54.5314 56.4578C54.5418 56.0141 54.6522 55.5785 54.8544 55.1835C55.0566 54.7885 55.3454 54.4442 55.6992 54.1763C56.6793 53.4392 56.6523 53.3852 56.6523 56.6319ZM78.8071 54.1763C79.1609 54.4442 79.4497 54.7885 79.6519 55.1835C79.8541 55.5785 79.9645 56.0141 79.9749 56.4578C80.025 57.0057 79.9238 57.5568 79.6825 58.0511C79.4411 58.5455 79.0688 58.9642 78.606 59.2617C77.8405 59.7315 77.854 59.772 77.854 56.6319C77.8554 53.3852 77.827 53.4392 78.8071 54.1763ZM44.3065 59.7855V62.603H42.9646V56.9694H44.3065V59.7855ZM91.5417 59.7855V62.603H90.1998V56.9694H91.5417V59.7855ZM47.9164 59.4237C48.7449 59.9214 49.4007 60.6612 49.7956 61.5432C50.3059 62.63 50.3356 62.6232 48.2391 62.576L46.3869 62.5355L46.3464 60.6698L46.3059 58.8041L46.7487 58.8986C47.1585 59.0239 47.5508 59.2003 47.9164 59.4237ZM88.1599 60.6846L88.1194 62.5368L86.2807 62.5773C84.1599 62.6178 84.1869 62.6448 84.7512 61.4366C85.2402 60.4777 86.0198 59.6981 86.9787 59.2091C88.2274 58.5894 88.2004 58.5651 88.1599 60.6846ZM94.7223 59.2482C95.3311 59.553 95.8699 59.9812 96.3043 60.5056C96.7387 61.0299 97.0592 61.6389 97.2454 62.2938L97.3264 62.603H93.5545V60.7238C93.5545 59.2482 93.595 58.8446 93.7287 58.8446C94.0738 58.9425 94.407 59.0783 94.7223 59.2496V59.2482ZM51.6573 65.3813L51.6168 66.1589L43.672 66.1994L35.7151 66.2264V64.6158H51.7005L51.6573 65.3813ZM98.7858 65.4218V66.2318L90.841 66.2048L82.8841 66.1643L82.8436 65.3867L82.8031 64.6212H98.7885L98.7858 65.4218ZM42.6933 69.1127C42.6933 69.8106 42.7473 70.0388 42.9633 70.2534C43.0566 70.3568 43.1719 70.4379 43.3007 70.4909C43.4295 70.5439 43.5686 70.5673 43.7076 70.5596C43.8467 70.5518 43.9822 70.513 44.1043 70.446C44.2264 70.379 44.3319 70.2855 44.4132 70.1724C44.6548 69.9024 44.7088 69.6756 44.7088 69.0317V68.2406H49.5526L49.5121 71.247L49.4716 74.2535L49.0666 74.8299C48.3012 75.9099 48.1 75.9572 43.9366 75.9977C40.0216 76.0382 39.4951 75.9842 38.7972 75.3942C37.9251 74.6693 37.8522 74.348 37.8522 71.1269V68.2419H42.696L42.6933 69.1127ZM89.7948 69.0317C89.7948 69.6756 89.8488 69.9038 90.1039 70.1724C90.1836 70.2855 90.2879 70.3791 90.4089 70.4462C90.5298 70.5134 90.6644 70.5522 90.8026 70.56C90.9407 70.5678 91.0788 70.5443 91.2066 70.4912C91.3343 70.4381 91.4484 70.3568 91.5403 70.2534C91.755 70.0388 91.8103 69.8106 91.8103 69.1127V68.2406H96.6406V71.1255C96.6406 74.3466 96.5731 74.6679 95.6956 75.3929C94.9977 75.9828 94.4806 76.0368 90.5562 75.9963C86.3968 75.9558 86.1943 75.9018 85.4262 74.8286L85.0212 74.2521L84.9807 71.2457L84.9402 68.2392H89.784L89.7948 69.0317ZM70.2022 70.1184V71.4603H64.3014V68.7765H70.2063L70.2022 70.1184ZM69.2572 73.5677C68.6615 74.6139 67.9887 75.6143 67.2444 76.5606C66.5001 75.6143 65.8273 74.6139 65.2315 73.5677C65.8981 73.4734 66.572 73.4418 67.2444 73.4732C67.92 73.4405 68.5971 73.4721 69.2667 73.5677H69.2572ZM64.57 76.2744L66.1806 78.7301V84.8766H57.1896V83.3606C57.2233 81.3247 56.6602 79.3236 55.5696 77.6042C55.2874 77.2154 55.2874 77.1992 55.5291 76.9467C55.7707 76.7186 62.6544 73.7391 62.8555 73.7796C62.9055 73.7958 63.6709 74.9244 64.57 76.2744ZM45.4878 78.6666L45.4473 79.3106L43.6761 79.3511L41.8914 79.3916V78.0416H45.5283L45.4878 78.6666ZM92.6163 78.7071V79.3916L90.8451 79.3511L89.0604 79.3106L89.0199 78.6666L88.9794 78.0362H92.6163V78.7071ZM44.2944 82.4871C43.9852 83.1041 43.7314 83.6144 43.7179 83.6279C43.2872 82.9334 42.9017 82.2119 42.5637 81.4679C42.9375 81.392 43.3198 81.3661 43.7004 81.3909H44.8411L44.2944 82.4871ZM91.9494 81.4679C91.6114 82.2119 91.2258 82.9334 90.7951 83.6279C90.7816 83.6144 90.5251 83.1041 90.2187 82.4871L89.6679 81.3869H90.8086C91.1892 81.3649 91.571 81.3934 91.944 81.4719L91.9494 81.4679ZM41.5552 83.9546L42.7095 86.2361L42.669 87.5375L42.6285 88.8389L38.7634 88.8794L34.9119 88.9064L34.9389 86.3967L34.9794 83.8736L37.5957 82.7733C39.0321 82.1699 40.2525 81.6731 40.3065 81.6731C40.7834 82.3987 41.201 83.1617 41.5552 83.9546ZM48.9087 82.425C50.6799 83.1635 50.7474 83.204 50.6799 83.5388C50.6394 83.7264 50.3181 84.9887 49.9684 86.3562L49.338 88.8389L47.0295 88.8794L44.7075 88.9064V86.0889L45.8077 83.8749C46.4247 82.6599 46.9485 81.6609 46.989 81.6609C47.0295 81.6609 47.8854 82.0079 48.91 82.4237L48.9087 82.425ZM88.6959 83.8749L89.7961 86.0889V88.9064L87.4876 88.8794L85.1656 88.8389L84.4542 86.0214C84.1686 85.0873 83.9675 84.1295 83.8534 83.1594C83.9074 83.1324 84.712 82.7976 85.6381 82.4075C86.5642 82.0173 87.3823 81.6825 87.4498 81.669C87.9381 82.3604 88.356 83.0989 88.6972 83.8736L88.6959 83.8749ZM96.9079 82.7747L99.5242 83.8749L99.5647 86.3981L99.5917 88.9077H98.5981C97.672 88.9077 97.5789 88.9347 97.3237 89.256C97.24 89.3349 97.174 89.4307 97.1302 89.537C97.0864 89.6433 97.0657 89.7577 97.0695 89.8727C97.0733 89.9876 97.1016 90.1004 97.1524 90.2036C97.2032 90.3068 97.2754 90.3979 97.3642 90.471C97.6464 90.7937 97.7935 90.8463 98.6386 90.8868L99.5917 90.9408V93.329H91.8103V90.9408L92.8296 90.8868C93.7017 90.8463 93.8893 90.7923 94.104 90.525C94.2538 90.3442 94.3413 90.12 94.3534 89.8855C94.3656 89.6511 94.3018 89.4189 94.1715 89.2236C94.0243 89.0225 93.7665 88.9536 92.9241 88.901L91.8778 88.8335L91.8373 87.5321L91.7968 86.2307L92.9511 83.9492C93.3049 83.1564 93.722 82.3934 94.1985 81.6677C94.2525 81.6744 95.4742 82.1685 96.9093 82.7733L96.9079 82.7747ZM66.1779 89.0414V91.1879H57.1869V89.1345C57.1588 88.4176 57.1904 87.6997 57.2814 86.988C57.3219 86.934 59.3482 86.8935 61.7769 86.8935H66.1779V89.0414ZM77.2884 89.0684L77.3289 91.1879H68.3244V86.8935L72.7929 86.9205L77.2479 86.961L77.2884 89.0684ZM42.696 92.1261V93.3344H34.9132V90.9192H42.696V92.1261ZM48.5469 92.0856L48.2512 93.2669L46.48 93.3074L44.7088 93.3479V90.9179H48.8425L48.5469 92.0856ZM89.7975 92.1261V93.3411L88.0263 93.3006L86.2551 93.2601L85.9594 92.0789L85.6638 90.9111H89.7975V92.1261Z" fill="#0B2848"/>
<path d="M66.5022 54.9687C66.2741 55.2239 66.2471 55.479 66.2471 57.2637V59.2765L66.6224 59.5992C66.7996 59.7616 67.0174 59.873 67.2528 59.9218C67.4882 59.873 67.706 59.7616 67.8833 59.5992L68.2586 59.2765V57.2637C68.2586 55.479 68.2316 55.2239 68.0034 54.9687C67.9058 54.8703 67.7881 54.7941 67.6583 54.7454C67.5285 54.6968 67.3897 54.6766 67.2515 54.6865C67.1137 54.677 66.9754 54.6973 66.8461 54.746C66.7168 54.7947 66.5995 54.8707 66.5022 54.9687Z" fill="#0B2848"/>
<path d="M64.3799 61.2762C63.6009 61.8796 64.2057 63.1945 65.6273 64.0005C66.3551 64.3927 67.1995 64.5108 68.007 64.3334C68.8146 64.1561 69.5317 63.695 70.0282 63.0339C70.5912 62.2819 70.6182 61.665 70.1228 61.2789C69.5058 60.7956 68.9415 60.9427 68.4852 61.7217C68.3585 61.9363 68.1779 62.1143 67.9614 62.2378C67.7449 62.3614 67.4999 62.4265 67.2506 62.4265C67.0013 62.4265 66.7564 62.3614 66.5398 62.2378C66.3233 62.1143 66.1428 61.9363 66.016 61.7217C65.5624 60.94 64.9995 60.7929 64.3799 61.2762Z" fill="#0B2848"/>
<path d="M41.6891 71.6207C40.736 72.131 40.9777 73.2582 42.1994 74.0628C42.7022 74.396 43.3022 74.5504 43.9033 74.5015C44.5044 74.4525 45.0715 74.2029 45.5137 73.7928C46.4263 72.9747 46.4938 72.1553 45.7148 71.6463C45.299 71.3763 44.8967 71.4992 44.3459 72.0756C43.8221 72.6264 43.4738 72.6521 43.0985 72.1566C42.8501 71.8209 42.495 71.5796 42.0914 71.4722C41.9498 71.4981 41.8137 71.5483 41.6891 71.6207Z" fill="#0B2848"/>
<path d="M88.7638 71.6631C88.0119 72.2031 88.0888 72.9915 88.992 73.7961C89.2864 74.061 89.6347 74.2591 90.0129 74.3766C90.3911 74.4942 90.7903 74.5285 91.183 74.4772C91.5758 74.4259 91.9527 74.2902 92.2881 74.0794C92.6234 73.8686 92.9091 73.5878 93.1256 73.2561C93.5954 72.5312 93.501 71.9817 92.8557 71.6456C92.3589 71.3904 91.8486 71.5646 91.4193 72.1424C91.044 72.6527 90.6808 72.6392 90.1583 72.0749C89.6359 71.5106 89.1661 71.381 88.7638 71.6631Z" fill="#0B2848"/>
</svg>
