<svg width="136" height="136" viewBox="0 0 136 136" fill="none" xmlns="http://www.w3.org/2000/svg">
<rect x="1" y="0.841309" width="134" height="134" rx="67" fill="#1E4D90" fill-opacity="0.06"/>
<rect x="1" y="0.841309" width="134" height="134" rx="67" stroke="#1E4D90" stroke-dasharray="6 6"/>
<path d="M63.7407 36.5344C58.2184 37.4511 53.2157 40.339 49.6602 44.6628C46.1044 49.0017 44.2628 54.4937 44.4839 60.0991C44.7051 65.7045 46.9737 71.0344 50.8603 75.0796L51.7729 76.0557L46.8454 84.0558C45.0396 86.7763 43.3887 89.5964 41.9004 92.5027C41.9336 92.7924 42.0538 93.0652 42.2452 93.2853C42.4365 93.5053 42.69 93.6622 42.9723 93.7353C43.1329 93.7353 45.0999 93.4788 47.3409 93.1588C48.7051 92.9148 50.0844 92.7651 51.4692 92.7106C51.4854 92.7903 52.317 94.4386 53.3092 96.3745C54.6687 99.0624 55.2127 99.9588 55.5327 100.134C56.4777 100.646 56.4925 100.63 61.3093 91.0461L65.7414 82.2144H69.0219L73.4539 91.0785C77.3257 98.8072 77.9494 99.9588 78.3504 100.123C79.3102 100.528 79.4857 100.315 81.5026 96.2989C82.0823 95.0177 82.7673 93.7867 83.5506 92.6188C83.6464 92.6188 85.5661 92.8753 87.7909 93.1953L91.8544 93.7717L92.2702 93.468C92.415 93.3667 92.5339 93.2328 92.6174 93.0771C92.7009 92.9214 92.7466 92.7482 92.7508 92.5716C92.7994 92.0437 92.2864 91.1473 88.0461 84.2677C85.4379 80.0112 83.2144 76.4121 83.1334 76.2676C82.989 76.0435 83.1658 75.7722 84.1581 74.7475C88.1031 70.5266 90.2843 64.9567 90.2547 59.1793C90.2852 56.726 89.8957 54.2856 89.1031 51.9636C88.0596 48.7385 86.2856 45.7978 83.9191 43.3708C80.8384 40.1044 76.8566 37.8269 72.4792 36.8274C69.5967 36.2997 66.6521 36.201 63.7407 36.5344ZM71.2615 39.0994C75.214 39.8867 78.8412 41.8367 81.6781 44.6992C84.6695 47.6462 86.676 51.4465 87.4224 55.5789C87.7583 57.967 87.7583 60.3903 87.4224 62.7784C86.5367 67.6689 83.9054 72.0714 80.0176 75.1676C76.1298 78.2637 71.2501 79.8429 66.2854 79.6116C61.1824 79.3899 56.3552 77.2332 52.7854 73.5798C50.4671 71.2832 48.7426 68.4568 47.7607 65.3448C46.5307 61.2171 46.5585 56.8165 47.8404 52.7047C49.0545 49.1325 51.2232 45.9609 54.1115 43.5335C56.9998 41.1062 60.4975 39.5158 64.2253 38.9347C66.5671 38.6685 68.9342 38.7221 71.2615 39.094V39.0994ZM54.9738 78.4452C57.2037 79.8549 59.6375 80.9126 62.1895 81.5812C62.4831 81.6207 62.7659 81.7185 63.0211 81.8688C63.0211 82.0443 56.0605 95.821 55.9809 95.821C55.9323 95.821 55.2613 94.5574 54.4959 93.0211C53.4874 91.0056 52.992 90.1564 52.7193 90.0511C51.5401 89.9315 50.3492 90.0183 49.1998 90.3076C48.131 90.4961 47.0517 90.6192 45.9679 90.6762C45.8883 90.5965 53.7115 77.7472 53.8398 77.7472C53.8681 77.7351 54.3811 78.055 54.9724 78.4384L54.9738 78.4452ZM85.1179 84.2367C87.2941 87.7467 88.9897 90.6532 88.9101 90.6694C88.8304 90.6856 87.3738 90.525 85.662 90.286C84.516 89.996 83.328 89.9092 82.152 90.0295C81.8644 90.1578 81.3676 90.9745 80.3443 92.9995C79.5762 94.552 78.9039 95.8156 78.8593 95.8156C78.7635 95.8156 71.7867 81.8796 71.8515 81.8148C71.8839 81.7824 72.5076 81.6069 73.2595 81.399C75.7762 80.731 78.1582 79.632 80.2998 78.1509C80.5037 77.971 80.7522 77.8493 81.0193 77.7985C81.1179 77.8147 82.9579 80.7105 85.1179 84.2313V84.2367Z" fill="#1E4D90"/>
<path d="M64.7025 41.4138C63.0039 41.7208 61.3454 42.219 59.7588 42.8988C57.1019 44.205 54.7725 46.0915 52.9426 48.4189C51.6471 50.2933 50.6455 52.3548 49.9726 54.5317C49.4328 56.9518 49.3032 59.4452 49.5892 61.9081C50.107 65.1392 51.4923 68.1691 53.5975 70.6744C55.7026 73.1797 58.4485 75.0664 61.5421 76.1331C63.9772 76.9471 66.5585 77.2293 69.1119 76.9608C71.6654 76.6923 74.1315 75.8793 76.344 74.5767C78.5565 73.274 80.4639 71.512 81.9375 69.4095C83.4111 67.307 84.4167 64.9129 84.8863 62.3888C85.3812 59.387 85.1564 56.3105 84.2302 53.4126C83.3721 50.782 81.8645 48.4103 79.8468 46.5168C77.5891 44.1676 74.6993 42.5227 71.5267 41.781C69.2844 41.3088 66.9826 41.1849 64.7025 41.4138ZM69.8068 44.0544C72.8569 44.5673 75.6812 45.9885 77.9107 48.1321C80.1403 50.2756 81.6713 53.0419 82.3038 56.0694C82.6399 58.1307 82.6399 60.2329 82.3038 62.2942C81.8538 64.4447 80.9471 66.4735 79.645 68.2432C78.343 70.0129 76.676 71.4823 74.7569 72.5519C72.8377 73.6215 70.7112 74.2663 68.5212 74.4428C66.3312 74.6193 64.1289 74.3233 62.0632 73.5748C59.5039 72.6465 57.2369 71.0553 55.494 68.9637C53.7511 66.8722 52.5949 64.3554 52.1434 61.6705C51.8588 59.4312 51.9888 57.1587 52.5268 54.9664C53.5632 51.3421 55.8973 48.2261 59.0841 46.2125C62.2709 44.199 66.0873 43.4288 69.8055 44.049L69.8068 44.0544Z" fill="#1E4D90"/>
<path d="M66.7816 46.5989C66.023 47.7613 65.3541 48.9799 64.7809 50.244L63.0853 53.6527L59.2932 54.213C55.1176 54.8367 54.8125 54.9487 54.8125 55.9679C54.8125 56.3999 55.1648 56.8319 57.5489 59.216C58.5566 60.144 59.478 61.1616 60.3016 62.2562C60.3016 62.4007 60.0451 63.968 59.7251 65.7446C59.4052 67.5212 59.1487 69.1845 59.1487 69.441C59.1639 69.7535 59.2897 70.0506 59.5036 70.279C59.7175 70.5075 60.0055 70.6525 60.3164 70.6883C61.634 70.2053 62.9081 69.611 64.1248 68.9118L67.5173 67.1351L70.8775 68.9118C72.075 69.5949 73.3212 70.1887 74.6062 70.6883C74.9151 70.6718 75.2078 70.5449 75.4309 70.3305C75.654 70.1161 75.7925 69.8286 75.8212 69.5206C75.8212 69.233 75.5336 67.424 75.1975 65.4881L74.5576 61.9781L77.3575 59.2417C80.1412 56.5539 80.1736 56.5214 80.1101 55.8977C80.0305 54.8582 79.7416 54.7462 75.5822 54.1536L71.9183 53.6419L70.2065 50.1697C69.6446 48.895 68.9586 47.6787 68.1586 46.5382C67.9457 46.4208 67.7045 46.3643 67.4616 46.3751C67.2186 46.3858 66.9834 46.4632 66.7816 46.5989ZM68.7823 53.1113C69.2015 54.0525 69.7235 54.9444 70.3388 55.7708C72.2244 56.2304 74.1377 56.5673 76.0669 56.7793C75.4679 57.5393 74.8098 58.2507 74.0986 58.9069C72.4664 60.5552 71.9872 61.1465 71.9872 61.4719C71.9872 61.696 72.1789 62.9434 72.403 64.2245C72.5727 65.0715 72.6904 65.9281 72.7554 66.7895C72.7229 66.934 71.9075 66.5655 70.2268 65.6529C69.3514 65.1485 68.4426 64.7046 67.5065 64.3244C66.5717 64.7155 65.6631 65.1664 64.7863 65.6744C63.1542 66.5546 62.2901 66.938 62.2577 66.8098C62.3321 65.9342 62.4552 65.0635 62.6263 64.2016C62.8504 62.8732 63.0313 61.6258 63.0313 61.4179C63.0313 61.1776 62.3914 60.4256 60.9509 58.9541L58.8706 56.8576L61.6867 56.4418C62.7505 56.3705 63.7974 56.1383 64.7917 55.7533C65.3409 54.9046 65.8277 54.0171 66.2483 53.0978C66.6136 52.2747 67.0358 51.4781 67.5119 50.7137C67.9788 51.4892 68.4029 52.2896 68.7823 53.1113Z" fill="#1E4D90"/>
</svg>
